<?xml version="1.0" standalone="no"?><!DOCTYPE svg PUBLIC "-//W3C//DTD SVG 1.1//EN" "http://www.w3.org/Graphics/SVG/1.1/DTD/svg11.dtd"><svg class="icon" width="200px" height="200.00px" viewBox="0 0 1024 1024" version="1.1" xmlns="http://www.w3.org/2000/svg"><path fill="inherit !important" d="M385.8 897.2h-257V122.9h578.8v122.8c0 16.5 13.5 29.9 30 29.9s29.9-13.4 29.9-29.9V116.5c0-29.4-23.9-53.4-53.4-53.4H122.4C93 63.1 69 87 69 116.5v787.2c0 29.4 23.9 53.4 53.4 53.4h263.4c16.5 0 29.9-13.4 29.9-29.9 0-16.6-13.4-30-29.9-30z"  /><path fill="inherit !important" d="M649.5 265.6c0-16.5-13.5-29.9-30-29.9H221.8c-16.5 0-29.9 13.4-29.9 29.9s13.4 29.9 29.9 29.9h397.7c16.5 0 30-13.4 30-29.9zM424 436.8c0-16.5-13.4-29.9-29.9-29.9H221.8c-16.5 0-29.9 13.4-29.9 29.9s13.4 29.9 29.9 29.9h172.3c16.5 0 29.9-13.4 29.9-29.9zM329.3 577.9H221.8c-16.5 0-29.9 13.5-29.9 30s13.4 29.9 29.9 29.9h107.5c16.5 0 29.9-13.4 30-29.9 0-16.6-13.5-30-30-30zM221.8 749c-16.5 0-29.9 13.4-29.9 29.9 0 16.6 13.4 30 29.9 30h107.5c16.5 0 29.9-13.4 30-30 0-16.5-13.5-29.9-30-29.9H221.8zM876.8 485.3c-51.7-51.7-120.5-80.2-193.7-80.2s-142 28.5-193.7 80.2C437.7 537 409.2 605.8 409.2 679s28.5 142 80.2 193.7c51.7 51.7 120.5 80.2 193.7 80.2s142-28.5 193.7-80.2C928.5 821 957 752.2 957 679s-28.4-142-80.2-193.7zM683.1 905.5c-124.9 0-226.6-101.6-226.6-226.6 0-124.9 101.6-226.5 226.6-226.5C808 452.4 909.6 554 909.6 679c0.1 124.9-101.5 226.5-226.5 226.5z"  /><path fill="inherit !important" d="M799.6 549l-0.1-17.3H567.1l0.5 18c2.2 80.7 36.6 118.1 68.6 135.5-31.9 17.4-66.4 55-68.6 135.6l-0.5 18h232.4l0.1-17.4c0.4-36.9-14.6-104.8-71.4-135.8C785 655 799.9 586.3 799.6 549zM684.1 664.7c-2.9-0.1-70.1-3.3-80.3-98h159.7c-3.7 30.3-18.7 89.2-79.4 98z m-80.3 139.2c9.1-84.9 63.6-96.4 77.9-98 62.3 9.2 77.8 67.8 81.7 98H603.8z"  /></svg>