<?xml version="1.0" standalone="no"?><!DOCTYPE svg PUBLIC "-//W3C//DTD SVG 1.1//EN" "http://www.w3.org/Graphics/SVG/1.1/DTD/svg11.dtd"><svg class="icon" width="200px" height="200.00px" viewBox="0 0 1024 1024" version="1.1" xmlns="http://www.w3.org/2000/svg"><path fill="#1296db" d="M838.76735052 107.56035318C823.62125275 92.37541925 803.73714489 84.80237037 783.85303703 84.80237037l-77.67229628 0 0 38.83614815 77.67229628 0c9.94205392 0 19.88410785 3.80594252 27.45715675 11.3789914C818.88324267 142.59055882 822.68918518 152.53261275 822.68918518 162.47466667l0 699.05066666c0 9.94205392-3.80594252 19.88410785-11.3789914 27.45715675S793.79509097 900.36148148 783.85303703 900.36148148L240.14696297 900.36148148c-9.94205392 0-19.88410785-3.80594252-27.45715675-11.3789914S201.31081482 871.46738725 201.31081482 861.52533333L201.31081482 162.47466667c0-9.94205392 3.80594252-19.88410785 11.3789914-27.45715675C220.26285511 127.44446103 230.20490903 123.63851852 240.14696297 123.63851852l77.67229628 0L317.81925925 84.80237037 240.14696297 84.80237037C220.26285511 84.80237037 200.37874725 92.37541925 185.23264948 107.56035318 170.04771555 122.70645097 162.47466667 142.59055882 162.47466667 162.47466667l0 699.05066666c0 19.88410785 7.57304889 39.7682157 22.75798281 54.91431349C200.37874725 931.62458075 220.26285511 939.19762963 240.14696297 939.19762963l543.70607406 0c19.88410785 0 39.7682157-7.57304889 54.91431349-22.75798281C853.95228445 901.29354903 861.52533333 881.40944118 861.52533333 861.52533333L861.52533333 162.47466667C861.52533333 142.59055882 853.95228445 122.70645097 838.76735052 107.56035318z"  /><path fill="#1296db" d="M434.3277037 84.80237037l155.3445926 0 0 38.83614815-155.3445926 0 0-38.83614815Z"  /><path fill="#1296db" d="M376.07348148 181.89274075C386.79225837 181.89274075 395.49155555 173.19344355 395.49155555 162.47466667L395.49155555 45.96622222c0-10.71877689-8.69929718-19.41807408-19.41807407-19.41807407S356.65540741 35.24744533 356.65540741 45.96622222l0 116.50844445C356.65540741 173.19344355 365.35470459 181.89274075 376.07348148 181.89274075z"  /><path fill="#1296db" d="M647.92651852 181.89274075C658.64529541 181.89274075 667.34459259 173.19344355 667.34459259 162.47466667L667.34459259 45.96622222c0-10.71877689-8.69929718-19.41807408-19.41807407-19.41807407S628.50844445 35.24744533 628.50844445 45.96622222l0 116.50844445C628.50844445 173.19344355 637.20774163 181.89274075 647.92651852 181.89274075z"  /><path fill="#1296db" d="M745.01688889 317.81925925l-349.52533334 0c-10.71877689 0-19.41807408 8.69929718-19.41807407 19.41807408S384.77277867 356.65540741 395.49155555 356.65540741l349.52533334 0c10.71877689 0 19.41807408-8.69929718 19.41807408-19.41807408S755.73566578 317.81925925 745.01688889 317.81925925z"  /><path fill="#1296db" d="M278.98311111 317.81925925c-10.71877689 0-19.41807408 8.69929718-19.41807408 19.41807408S268.26433422 356.65540741 278.98311111 356.65540741l38.83614814 0c10.71877689 0 19.41807408-8.69929718 19.41807408-19.41807408S328.53803615 317.81925925 317.81925925 317.81925925L278.98311111 317.81925925z"  /><path fill="#1296db" d="M745.01688889 473.16385185l-349.52533334 0c-10.71877689 0-19.41807408 8.69929718-19.41807407 19.41807407S384.77277867 512 395.49155555 512l349.52533334 0c10.71877689 0 19.41807408-8.69929718 19.41807408-19.41807408S755.73566578 473.16385185 745.01688889 473.16385185z"  /><path fill="#1296db" d="M317.81925925 473.16385185l-38.83614814 0c-10.71877689 0-19.41807408 8.69929718-19.41807408 19.41807407S268.26433422 512 278.98311111 512l38.83614814 0c10.71877689 0 19.41807408-8.69929718 19.41807408-19.41807408S328.53803615 473.16385185 317.81925925 473.16385185z"  /><path fill="#1296db" d="M745.01688889 628.50844445l-349.52533334 0c-10.71877689 0-19.41807408 8.69929718-19.41807407 19.41807407S384.77277867 667.34459259 395.49155555 667.34459259l349.52533334 0c10.71877689 0 19.41807408-8.69929718 19.41807408-19.41807407S755.73566578 628.50844445 745.01688889 628.50844445z"  /><path fill="#1296db" d="M317.81925925 628.50844445l-38.83614814 0c-10.71877689 0-19.41807408 8.69929718-19.41807408 19.41807407S268.26433422 667.34459259 278.98311111 667.34459259l38.83614814 0c10.71877689 0 19.41807408-8.69929718 19.41807408-19.41807407S328.53803615 628.50844445 317.81925925 628.50844445z"  /></svg>