<?xml version="1.0" standalone="no"?><!DOCTYPE svg PUBLIC "-//W3C//DTD SVG 1.1//EN" "http://www.w3.org/Graphics/SVG/1.1/DTD/svg11.dtd"><svg class="icon" width="200px" height="200.00px" viewBox="0 0 1024 1024" version="1.1" xmlns="http://www.w3.org/2000/svg"><path fill="#1296db" d="M898.748 735.636l-65.52-50.95c-11.812-9.178-18.564-23.019-18.564-37.969V411.801c0-40.838-8.006-80.464-23.812-117.811-15.236-36.041-37.052-68.405-64.814-96.171-27.764-27.79-60.125-49.588-96.177-64.826a303.935 303.935 0 0 0-40.645-13.871V86.111c-0.029-42.543-34.643-77.143-77.175-77.143-42.551 0-77.17 34.604-77.17 77.143v32.991a306.438 306.438 0 0 0-40.653 13.871c-36.057 15.241-68.386 37.054-96.173 64.826-27.787 27.757-49.586 60.122-64.838 96.167-15.788 37.349-23.818 76.993-23.818 117.802v234.896c0 14.954-6.777 28.802-18.562 37.964l-65.522 50.956c-12.588 9.794-21.407 23.013-25.454 38.256-3.692 13.871-3.185 28.436 1.515 42.107 4.683 13.683 13.22 25.515 24.643 34.183 12.547 9.513 27.617 14.565 43.594 14.565h684.831c15.954 0 31.042-5.037 43.594-14.54 11.43-8.675 19.957-20.51 24.649-34.183 4.705-13.683 5.223-28.236 1.536-42.117-4.057-15.206-12.868-28.43-25.458-38.227z m-98.741-8.265l65.514 50.947c7.495 5.858 8.025 14.214 5.991 20.105-2.018 5.898-7.574 12.191-17.055 12.191H169.6c-9.482 0-15.04-6.293-17.046-12.191-2.017-5.89-1.515-14.251 5.979-20.105l65.514-50.947c25.088-19.504 39.465-48.914 39.465-80.676V411.767c0-137.028 111.476-248.522 248.529-248.522 137.013 0 248.49 111.491 248.49 248.522v234.928c0.018 31.782 14.398 61.171 39.479 80.676zM512.035 63.077c12.692 0 23.039 10.347 23.039 23.03v19.911H488.98V86.107c0-12.703 10.33-23.03 23.055-23.03z m0 0zM409.814 912.823c0 56.362 45.851 102.212 102.222 102.212 56.355 0 102.202-45.853 102.202-102.212v-2.009H409.817v2.009z m0 0zM245.583 132.205c5.626-4.553 9.126-11.021 9.891-18.209 0.77-7.187-1.317-14.253-5.868-19.86-5.177-6.365-12.836-10.005-21.061-10.005a27.143 27.143 0 0 0-16.998 6.009c-48.129 38.945-87.719 86.068-117.713 140.051-30.777 55.459-49.918 115.539-56.893 178.61-1.653 14.821 9.077 28.211 23.91 29.862 1.003 0.119 2.006 0.169 2.99 0.169 13.791 0 25.337-10.35 26.849-24.071 12.354-111.355 67.364-211.726 154.892-282.559z m0 0zM930.192 230.198c-29.996-54.014-69.595-101.126-117.713-140.084a27.12 27.12 0 0 0-17.008-6.006c-8.214 0-15.879 3.667-21.061 10.032-9.386 11.599-7.595 28.673 4.003 38.037 87.556 70.86 142.561 171.202 154.867 282.559 1.532 13.732 13.084 24.083 26.851 24.083 0.997 0 2.016-0.053 2.999-0.169 7.181-0.787 13.623-4.337 18.157-9.996 4.513-5.629 6.551-12.688 5.766-19.877-6.944-63.025-26.084-123.124-56.864-178.585z m0 0z"  /></svg>